# xmcd
#
# Track frame offsets:
#	150
#	9421
#	20026
#	32485
#	42183
#	54976
#	63877
#	74455
#	87329
#	99127
#	111335
#	121675
#	130650
#	142486
#	153948
#	164564
#	178099
#	189728
#	202428
#	212216
#	222366
#	232172
#	242323
#	252978
#
# Disc length: 3504 seconds
#
# Revision: 0
# Processed by: cddbd v1.5.2PL0 Copyright (c) Steve Scherf et al.
# Submitted via: audiograbber 1.83.01
#
DISCID=600dae18
DTITLE=Wanda Jackson - Four Classic Albums Plus Bonus Singles and Live Tracks  (C
DTITLE=D2)
DYEAR=1900
DGENRE=Oldies
TTITLE0=There's A Party Going On
TTITLE1=Lonely Weekends
TTITLE2=Kansas City
TTITLE3=Bye Bye Baby
TTITLE4=Fallin'
TTITLE5=Hard Headed Woman
TTITLE6=Tongue Tied
TTITLE7=It Doesn't Matter Anymore
TTITLE8=Tweedlee Dee
TTITLE9=Sparkling Brown Eyes
TTITLE10=Lost Weekend
TTITLE11=Man We Had A Party
TTITLE12=Right Or Wrong
TTITLE13=Why I'm Walking
TTITLE14=So Soon
TTITLE15=The Last Letter
TTITLE16=I May Never Get To Heaven
TTITLE17=The Window Up Above
TTITLE18=Sticks And Stones
TTITLE19=Stupid Cupid
TTITLE20=Slippin' And Slidin'
TTITLE21=Brown Eyed Handsome Man
TTITLE22=Who Shot Sam
TTITLE23=My Baby Left Me
EXTD=
EXTT0=
EXTT1=
EXTT2=
EXTT3=
EXTT4=
EXTT5=
EXTT6=
EXTT7=
EXTT8=
EXTT9=
EXTT10=
EXTT11=
EXTT12=
EXTT13=
EXTT14=
EXTT15=
EXTT16=
EXTT17=
EXTT18=
EXTT19=
EXTT20=
EXTT21=
EXTT22=
EXTT23=
PLAYORDER=
